<svg height='300px' width='300px'  fill="#000000" xmlns="http://www.w3.org/2000/svg" viewBox="0 0 100.44259 102.00098" x="0px" y="0px"><title>Risorsa 10</title><g data-name="Livello 2"><g data-name="Livello 1"><g><path d="M73.91476,83.09131a8.4811,8.4811,0,0,1-2.332-6.40576c0-3.273-.99024-5.76319-2.94287-7.40137-3.33545-2.79834-8.207-1.97656-8.41162-1.93994a.99992.99992,0,0,0,.3457,1.96972c.0415-.00634,4.17676-.68945,6.78857,1.50928,1.47315,1.24072,2.22022,3.21338,2.22022,5.86231a10.38775,10.38775,0,0,0,2.95068,7.852,11.53653,11.53653,0,0,0,7.6167,2.856c.126,0,.20166-.00293.21875-.0039H99.44259a1,1,0,0,0,0-2l-19.11914.001A9.64523,9.64523,0,0,1,73.91476,83.09131Z"></path><path d="M96.84786,53.08545l.001-.001h.00049a1.001,1.001,0,0,0,.33154-.269l.001-.00147a.99542.99542,0,0,0,.19336-.40332l.00049-.00048v-.001a1.00153,1.00153,0,0,0,.0205-.3042L93.52511.92529A.9997.9997,0,0,0,92.529,0a.104.104,0,0,1-.03565.00049c.0044,0-.01611.001-.022.001-42.085,2.395-64.94238,14.90821-76.70654,24.98389C3.09738,35.83447.22677,46.04541.03829,46.76221a.99382.99382,0,0,0-.03027.147,1.03093,1.03093,0,0,0-.00781.1499V97.40332a1,1,0,0,0,1,1H21.03634a.99752.99752,0,0,0,.51514-.14355,1.0835,1.0835,0,0,0,.11133-.07764l.00146-.00147a.99682.99682,0,0,0,.35205-.58252l.00244-.01464c.07276-.38672,6.94629-33.27246,74.53272-44.4043A1.00594,1.00594,0,0,0,96.84786,53.08545ZM77.81173,3.332C24.07687,17.3584,14.96017,41.207,13.64327,46.03613H2.39181C4.81222,39.65674,18.93478,10.75391,77.81173,3.332ZM2.00021,96.40332V48.03613H13.55685l6.33887,48.36719Zm76.50732-41.458c-.61621-5.8623-2.82226-30.7417-2.84668-31.01562a1,1,0,1,0-1.99219.17676c.10059,1.13525,2.30811,26.02636,2.88379,31.3623A142.80554,142.80554,0,0,0,57.0505,62.27783c-.72559-4.9458-2.90381-23.12549-3.77588-30.51855a1.00005,1.00005,0,1,0-1.98633.23437c.13428,1.13623,3.07715,26.05518,3.87159,31.13379A89.70284,89.70284,0,0,0,37.44845,73.70215L33.33322,46.88428a.99988.99988,0,1,0-1.97657.30371l4.29151,27.96777q-1.83912,1.53663-3.55127,3.19141a46.91883,46.91883,0,0,0-10.627,14.67627L15.448,47.07666c.52588-2.23877,8.66065-31.21582,76.168-44.87451L95.3337,51.355C90.10372,52.23926,84.39327,53.40576,78.50753,54.94531Z"></path><path d="M99.44259,99.99561l-25.78516.001c-.05322.00147-5.33984.20557-8.8999-3.19385-2.16113-2.06347-3.25683-5.05859-3.25683-8.90185,0-4.30713-1.294-7.57617-3.84571-9.71631-4.37793-3.67139-10.79687-2.5874-11.06738-2.53955a1.00017,1.00017,0,1,0,.34863,1.96973c.05713-.01075,5.7627-.97608,9.4336,2.10254,2.07763,1.74218,3.13086,4.4956,3.13086,8.18359,0,4.41113,1.3042,7.89258,3.87548,10.34814,3.68018,3.51465,8.74463,3.752,10.02784,3.752.17089,0,.27539-.00391.29931-.00537H99.44259a1,1,0,0,0,0-2Z"></path></g></g></g></svg>