<svg height='300px' width='300px'  fill="#000000" xmlns="http://www.w3.org/2000/svg" xmlns:xlink="http://www.w3.org/1999/xlink" version="1.1" x="0px" y="0px" viewBox="0 0 100 100" enable-background="new 0 0 100 100" xml:space="preserve"><g><path fill="none" d="M76.782,57.734H23.218c-1.972,0-3.571,1.6-3.571,3.571l4.464,25.89c0,1.972,1.599,3.571,3.57,3.571h44.637   c1.972,0,3.571-1.6,3.571-3.571l4.464-25.89C80.354,59.334,78.755,57.734,76.782,57.734z M50.001,75.921   c-1.171,0-2.119-0.946-2.119-2.118c0-1.168,0.948-2.114,2.119-2.114c1.169,0,2.116,0.946,2.116,2.114   C52.117,74.975,51.17,75.921,50.001,75.921z"></path><path d="M60.785,41.045c-0.07,3.24-4.872,5.854-10.785,5.854c-5.915,0-10.715-2.614-10.786-5.854   c-8.246,0.754-14.861,7.14-15.968,15.277h53.508C75.646,48.185,69.033,41.8,60.785,41.045z"></path><path d="M50,40.486c-6.003,0-10.963-6.506-11.76-14.954h-1.631C37.515,35.153,43.163,42.565,50,42.565   c6.835,0,12.485-7.412,13.392-17.032h-1.633C60.962,33.98,56.003,40.486,50,40.486z"></path><path d="M35.971,23.531h28.059c1.094,0,1.979-0.886,1.979-1.979c0-1.093-0.885-1.979-1.979-1.979H63.49   c0-5.257-3.011-9.809-7.399-12.035l-1.118,6.338c-0.088,0.502-0.523,0.855-1.018,0.855c-0.059,0-0.12-0.005-0.18-0.015   c-0.563-0.1-0.938-0.636-0.839-1.198l1.276-7.242C53.734,5.51,52.885,5,51.913,5h-3.828c-0.969,0-1.818,0.51-2.298,1.276   l1.277,7.242c0.099,0.563-0.276,1.099-0.838,1.198c-0.061,0.01-0.121,0.015-0.181,0.015c-0.493,0-0.93-0.353-1.018-0.855   l-1.118-6.337c-4.39,2.226-7.399,6.777-7.399,12.035h-0.539c-1.093,0-1.979,0.886-1.979,1.979   C33.992,22.645,34.877,23.531,35.971,23.531z"></path><path fill="#000000" d="M74.282,92.882H25.718c-0.584,0-1.059,0.475-1.059,1.06c0,0.584,0.475,1.059,1.059,1.059h48.564   c0.584,0,1.059-0.475,1.059-1.059C75.341,93.356,74.866,92.882,74.282,92.882z"></path><path fill="#000000" d="M76.782,56.322h-0.028H23.246h-0.028c-2.747,0-4.982,2.235-4.982,4.983v0.12l0.021,0.119l4.445,25.781   c0.07,2.688,2.277,4.852,4.98,4.852h44.637c2.704,0,4.912-2.164,4.981-4.852l4.444-25.781l0.021-0.119v-0.12   C81.765,58.558,79.529,56.322,76.782,56.322z M75.89,87.195c0,1.972-1.6,3.571-3.571,3.571H27.681c-1.971,0-3.57-1.6-3.57-3.571   l-4.464-25.89c0-1.972,1.599-3.571,3.571-3.571h53.564c1.973,0,3.571,1.6,3.571,3.571L75.89,87.195z"></path><path fill="#000000" d="M50.001,71.688c-1.171,0-2.119,0.946-2.119,2.114c0,1.172,0.948,2.118,2.119,2.118   c1.169,0,2.116-0.946,2.116-2.118C52.117,72.635,51.17,71.688,50.001,71.688z"></path></g></svg>